<?xml version="1.0" encoding="UTF-8"?>
<!-- Generator: visioncortex VTracer 0.6.4 -->
<svg version="1.1" xmlns="http://www.w3.org/2000/svg" width="919" height="596">
<path d="M0,0 L51,0 L55,1 L55,3 L49,5 L63,5 L63,8 L59,10 L69,9 L73,11 L69,15 L79,14 L82,17 L78,19 L81,20 L82,19 L88,19 L90,20 L90,22 L86,23 L87,25 L95,23 L99,25 L99,27 L95,29 L99,29 L105,28 L109,30 L108,32 L102,33 L102,35 L108,34 L115,33 L118,36 L111,39 L124,38 L127,41 L121,43 L125,44 L127,43 L135,43 L141,44 L141,48 L149,48 L149,53 L158,53 L158,58 L167,58 L167,63 L174,62 L177,65 L176,68 L185,67 L193,68 L194,72 L201,73 L202,77 L228,78 L228,82 L263,82 L263,77 L307,77 L307,73 L323,71 L324,67 L333,67 L330,64 L333,63 L341,63 L341,58 L350,58 L350,53 L361,53 L361,48 L362,48 L362,53 L369,54 L368,52 L363,51 L363,49 L372,48 L378,49 L377,47 L372,46 L372,44 L380,43 L386,44 L387,42 L381,41 L382,39 L388,38 L395,39 L392,37 L390,35 L396,33 L404,34 L400,32 L399,30 L401,29 L409,29 L414,30 L414,28 L409,27 L409,25 L416,24 L420,25 L422,24 L418,22 L418,20 L425,19 L428,22 L426,24 L429,24 L430,20 L431,18 L426,17 L429,14 L434,14 L437,17 L434,20 L437,19 L439,15 L443,14 L435,12 L437,10 L447,10 L445,6 L447,5 L458,5 L459,4 L455,2 L459,1 L507,0 L512,1 L512,3 L506,5 L519,5 L521,6 L521,8 L517,9 L517,11 L524,9 L529,10 L530,12 L525,15 L530,15 L531,14 L537,14 L539,15 L539,17 L534,19 L536,24 L545,26 L545,29 L554,31 L554,34 L562,36 L562,38 L569,40 L575,44 L587,50 L597,55 L601,53 L607,52 L611,54 L611,56 L603,58 L610,60 L610,58 L616,57 L621,59 L619,61 L613,63 L617,64 L625,62 L631,64 L627,66 L624,68 L638,68 L641,67 L642,77 L647,77 L647,73 L650,73 L651,80 L649,81 L649,85 L654,86 L655,78 L660,78 L660,88 L657,88 L658,96 L660,96 L662,98 L663,97 L665,83 L667,83 L669,87 L668,97 L667,97 L666,110 L668,110 L669,112 L671,112 L673,97 L677,97 L678,107 L677,111 L675,111 L675,116 L672,116 L672,298 L667,302 L662,310 L657,312 L652,316 L647,318 L646,320 L653,320 L655,322 L653,324 L646,324 L644,322 L638,323 L646,326 L645,328 L638,329 L635,327 L630,327 L630,329 L637,331 L636,333 L631,334 L627,332 L621,332 L621,334 L628,335 L627,338 L619,338 L614,337 L612,337 L612,339 L619,340 L619,342 L611,343 L605,342 L607,344 L610,345 L610,347 L603,348 L597,347 L596,349 L602,350 L600,352 L595,353 L588,351 L592,356 L591,357 L580,357 L583,361 L577,362 L571,362 L574,364 L574,366 L569,367 L563,367 L564,371 L559,372 L554,371 L555,375 L554,376 L545,376 L545,381 L536,381 L536,389 L554,389 L559,390 L559,391 L554,391 L554,394 L571,394 L571,389 L588,389 L588,394 L683,394 L685,396 L682,397 L632,397 L632,399 L659,399 L672,400 L687,399 L687,404 L693,404 L694,409 L701,408 L702,409 L702,414 L701,415 L700,433 L702,433 L702,438 L696,437 L693,438 L693,442 L679,443 L679,445 L686,445 L689,447 L684,448 L675,447 L300,447 L300,449 L680,450 L681,452 L678,453 L300,453 L300,462 L298,468 L296,468 L296,475 L298,478 L301,479 L302,476 L303,461 L307,462 L309,471 L308,482 L304,483 L304,489 L311,491 L312,477 L316,477 L317,481 L317,490 L316,492 L314,492 L316,497 L313,497 L314,503 L320,504 L320,491 L326,491 L327,501 L325,505 L321,507 L323,514 L327,517 L328,515 L330,501 L334,501 L335,505 L335,514 L333,521 L330,521 L331,527 L337,528 L338,515 L343,515 L344,525 L342,531 L339,533 L339,537 L345,539 L347,539 L347,530 L348,525 L350,525 L351,528 L353,529 L353,538 L351,538 L351,540 L349,540 L348,543 L350,551 L355,552 L356,553 L357,560 L359,566 L359,576 L358,577 L350,577 L350,582 L338,581 L158,581 L148,577 L149,568 L150,566 L150,552 L148,552 L147,548 L147,539 L149,539 L149,534 L151,534 L152,539 L152,553 L158,551 L159,542 L156,539 L155,529 L156,524 L157,524 L158,519 L160,519 L161,524 L162,539 L167,536 L169,530 L167,530 L167,524 L165,524 L164,514 L165,510 L170,510 L171,523 L175,522 L177,516 L175,516 L173,505 L174,495 L178,496 L180,511 L185,507 L186,501 L184,501 L183,495 L183,486 L184,481 L186,481 L189,496 L191,496 L193,494 L192,486 L192,476 L193,471 L195,471 L197,484 L201,484 L200,461 L205,462 L206,471 L209,473 L209,471 L211,471 L208,457 L208,453 L-172,453 L-174,451 L-173,450 L208,449 L217,448 L209,447 L-180,447 L-180,446 L-175,446 L-175,443 L-184,443 L-187,437 L-189,435 L-191,439 L-195,438 L-195,433 L-193,432 L-193,415 L-194,414 L-194,409 L-190,408 L-187,409 L-187,405 L-182,403 L-180,403 L-179,400 L-172,399 L-160,398 L-173,397 L-176,395 L-173,394 L-133,394 L-133,392 L-148,392 L-156,391 L-156,390 L-97,388 L-90,388 L-89,385 L-73,385 L-71,386 L-71,384 L-63,384 L-63,380 L-46,381 L-46,371 L-52,372 L-55,371 L-55,366 L-64,366 L-64,362 L-72,361 L-72,357 L-81,357 L-81,352 L-91,352 L-91,347 L-99,347 L-101,343 L-116,342 L-116,338 L-125,337 L-125,333 L-134,333 L-134,328 L-142,328 L-142,323 L-151,323 L-152,313 L-156,314 L-159,313 L-160,305 L-164,305 L-165,312 L-169,313 L-169,304 L-167,304 L-166,299 L-165,111 L-168,111 L-168,92 L-166,92 L-165,97 L-165,107 L-160,106 L-160,97 L-161,87 L-160,83 L-156,83 L-156,93 L-152,93 L-151,91 L-149,91 L-150,86 L-150,78 L-147,78 L-147,82 L-144,82 L-143,72 L-135,73 L-134,67 L-125,68 L-126,64 L-125,63 L-116,63 L-116,58 L-99,57 L-103,56 L-103,54 L-93,53 L-90,52 L-94,51 L-94,49 L-87,48 L-80,49 L-81,47 L-86,46 L-85,44 L-77,43 L-70,44 L-70,42 L-76,41 L-75,39 L-62,39 L-62,37 L-67,36 L-66,34 L-52,34 L-58,31 L-56,29 L-49,29 L-46,29 L-46,28 L-48,27 L-48,25 L-41,24 L-38,24 L-35,23 L-39,22 L-38,19 L-31,19 L-27,20 L-27,17 L-29,16 L-23,15 L-20,14 L-20,10 L-15,9 L-10,10 L-11,6 L-10,5 L0,5 L-3,1 Z M-14,13 L-15,15 L-11,15 L-11,13 Z M521,13 L522,15 Z M-24,17 L-24,20 L-19,20 L-19,17 Z M530,18 Z M-31,22 L-33,23 L-33,25 L-28,24 L-29,22 Z M-40,27 L-42,29 L-37,29 L-38,27 Z M418,27 L416,29 L419,29 Z M130,47 L130,50 L134,49 L135,47 Z M140,52 L139,54 L144,53 Z M148,57 L148,58 L153,58 L153,57 Z M355,57 L359,58 Z M-111,61 L-110,63 L-108,63 L-108,61 Z M159,61 L159,63 L162,63 L162,61 Z M347,61 L349,63 L350,61 Z M-121,66 L-121,68 L-116,68 L-116,66 Z M633,70 L632,73 L638,73 L638,70 Z M-128,71 Z M-146,319 Z M-136,323 Z M-75,352 Z M-66,357 Z M-58,362 Z M-48,366 L-49,368 L-46,368 L-46,366 Z M554,367 L554,368 L559,368 L559,367 Z M-40,371 L-40,373 L-37,373 L-37,371 Z M545,371 L545,373 L549,373 L549,371 Z M537,376 Z M-132,393 L-132,394 L-124,394 L-124,393 Z M-122,393 L-122,394 L-116,394 L-116,393 Z M535,393 Z M538,393 Z M542,393 Z M545,393 Z M216,453 L217,457 L219,456 L219,454 Z M290,458 L288,459 L289,465 L293,465 L293,458 Z " fill="#252E39" transform="translate(206,8)"/>
<path d="M0,0 L841,0 L848,5 L850,9 L850,18 L845,25 L841,27 L422,27 L429,37 L441,54 L455,74 L466,90 L479,108 L488,121 L500,138 L507,148 L514,158 L513,161 L509,162 L328,162 L329,158 L336,147 L342,139 L353,123 L360,113 L371,97 L384,79 L395,63 L401,54 L403,54 L405,49 L417,32 L420,27 L0,27 L-7,21 L-8,19 L-8,8 L-4,3 Z " fill="#15E1F4" transform="translate(39,417)"/>
<path d="M0,0 L3,0 L3,188 L-13,196 L-95,237 L-111,245 L-140,260 L-156,268 L-159,269 L-159,82 L-151,77 L-129,66 L-112,57 L-96,49 L-81,41 L-65,33 L-23,12 L-8,4 Z " fill="#12E1F6" transform="translate(404,122)"/>
<path d="M0,0 L4,1 L20,9 L39,19 L56,27 L75,37 L107,53 L123,61 L140,70 L152,76 L161,81 L161,268 L156,267 L140,259 L121,249 L98,238 L76,226 L53,215 L37,207 L16,196 L0,188 Z " fill="#048EF8" transform="translate(514,122)"/>
<path d="M0,0 L6,1 L25,11 L44,21 L60,29 L68,33 L84,41 L100,49 L117,58 L134,66 L153,76 L160,81 L160,267 L155,266 L139,258 L124,250 L108,242 L92,234 L76,226 L60,218 L44,210 L35,205 L28,202 L28,200 L22,199 L16,195 L9,192 L4,189 L-1,187 L-1,1 Z " fill="#038EF8" transform="translate(58,123)"/>
<path d="M0,0 L3,0 L3,188 L-13,196 L-29,204 L-58,219 L-74,227 L-102,241 L-121,251 L-155,268 L-158,268 L-158,81 L-137,70 L-121,62 L-91,47 L-74,38 L-58,30 L-41,21 L-25,13 L-1,1 Z " fill="#13E1F6" transform="translate(860,122)"/>
<path d="M0,0 L8,0 L25,9 L39,16 L58,26 L74,34 L89,42 L97,46 L102,48 L108,51 L127,61 L150,72 L162,79 L162,81 L164,81 L164,83 L148,91 L106,112 L89,121 L73,129 L52,139 L32,150 L15,158 L6,163 L-1,162 L-30,147 L-46,139 L-65,130 L-84,120 L-103,110 L-119,102 L-136,93 L-145,89 L-154,84 L-155,80 L-154,78 L-147,75 L-130,66 L-118,60 L-111,57 L-92,47 L-73,37 L-50,26 L-44,23 L-25,13 L-9,5 Z " fill="#038EF7" transform="translate(228,17)"/>
<path d="M0,0 L7,0 L24,8 L40,17 L56,25 L86,40 L102,48 L115,55 L122,58 L141,68 L155,75 L156,78 L159,79 L158,84 L137,95 L121,103 L89,119 L70,129 L54,137 L16,156 L4,162 L-2,161 L-32,146 L-36,143 L-44,140 L-60,132 L-77,123 L-91,116 L-108,107 L-118,102 L-129,96 L-136,93 L-152,85 L-158,82 L-158,79 L-148,74 L-129,64 L-103,51 L-84,41 L-60,29 L-44,21 L-25,11 L-9,3 Z " fill="#038EF7" transform="translate(686,18)"/>
<path d="M0,0 L841,0 L841,1 L19,2 L5,3 L1,5 L-2,5 L-4,10 L-5,20 L0,22 L6,25 L837,25 L843,23 L847,18 L848,7 L850,9 L850,18 L845,25 L841,27 L422,27 L429,37 L441,54 L455,74 L466,90 L479,108 L488,121 L500,138 L507,148 L514,158 L513,161 L509,162 L328,162 L329,158 L336,147 L342,139 L353,123 L360,113 L371,97 L384,79 L395,63 L401,54 L403,54 L405,49 L417,32 L420,27 L0,27 L-7,21 L-8,19 L-8,8 L-4,3 Z " fill="#13DFF4" transform="translate(39,417)"/>
<path d="M0,0 L6,1 L29,1 L50,0 L88,0 L121,1 L142,1 L179,0 L192,1 L237,1 L246,0 L268,1 L282,1 L291,0 L305,1 L416,1 L429,0 L430,1 L437,0 L474,1 L486,1 L494,0 L506,1 L626,1 L667,2 L688,3 L690,7 L692,7 L694,14 L694,24 L689,30 L682,33 L271,34 L272,39 L276,46 L275,48 L267,37 L264,33 L264,31 L683,30 L688,27 L691,22 L691,13 L688,8 L683,5 L-153,4 L-153,3 L-135,2 L-2,1 L0,2 Z " fill="#084251" transform="translate(197,413)"/>
<path d="M0,0 L1,0 L2,9 L9,10 L14,12 L416,13 L415,16 L409,17 L405,18 L402,17 L402,19 L109,19 L104,18 L95,19 L90,18 L65,18 L58,19 L26,19 L10,15 L7,14 L7,12 L1,10 L0,9 Z " fill="#1C2931" transform="translate(27,433)"/>
<path d="M0,0 L841,0 L841,1 L19,2 L5,3 L1,5 L-2,5 L-4,10 L-5,20 L0,22 L6,25 L837,25 L843,23 L847,18 L848,7 L850,9 L850,18 L845,25 L841,27 L422,27 L429,37 L441,54 L455,74 L459,81 L457,82 L457,80 L453,80 L451,74 L446,69 L443,63 L443,59 L439,58 L433,48 L433,45 L429,43 L429,41 L424,39 L422,33 L420,36 L418,39 L415,39 L415,41 L412,41 L414,36 L420,27 L0,27 L-7,21 L-8,19 L-8,8 L-4,3 Z " fill="#28A6B6" transform="translate(39,417)"/>
<path d="M0,0 L7,2 L22,10 L30,14 L32,18 L26,16 L11,8 L0,3 L1,191 L24,202 L43,212 L59,220 L76,228 L98,240 L114,248 L130,256 L147,264 L161,271 L161,84 L155,82 L147,77 L126,67 L111,59 L99,53 L99,52 L105,52 L111,56 L121,60 L129,64 L130,66 L141,69 L141,71 L146,72 L148,73 L148,75 L152,75 L152,77 L158,79 L162,82 L162,84 L164,84 L165,93 L165,102 L166,104 L165,108 L165,134 L166,137 L165,142 L165,175 L166,177 L165,185 L165,199 L166,201 L165,217 L165,225 L166,230 L165,239 L166,243 L166,247 L165,256 L165,266 L163,272 L159,274 L143,266 L139,265 L139,263 L133,261 L118,254 L114,252 L114,250 L107,249 L107,247 L102,247 L102,245 L96,243 L96,241 L90,240 L81,235 L80,233 L73,231 L59,224 L48,218 L34,211 L34,209 L28,207 L23,205 L23,203 L12,200 L0,194 L-3,189 L-4,74 L-4,5 Z " fill="#174A72" transform="translate(514,119)"/>
<path d="M0,0 L4,1 L1,4 L-9,7 L-31,9 L-86,9 L-94,8 L-97,8 L-146,9 L-289,9 L-300,8 L-382,8 L-390,9 L-390,7 L-405,7 L-405,5 L-407,4 L-406,3 L-5,2 Z " fill="#1B272F" transform="translate(884,443)"/>
<path d="M0,0 L7,0 L19,4 L31,10 L31,12 L35,13 L38,16 L46,20 L56,24 L57,26 L68,30 L68,32 L79,35 L87,40 L99,46 L99,48 L106,49 L106,51 L112,53 L116,55 L117,57 L124,59 L129,63 L136,66 L144,69 L152,73 L152,75 L157,76 L161,81 L165,85 L164,87 L160,85 L160,82 L154,82 L138,74 L106,58 L104,56 L99,54 L83,46 L68,38 L45,27 L36,22 L20,14 L5,6 L-3,6 L-26,18 L-46,28 L-48,30 L-61,32 L-68,36 L-76,40 L-80,40 L-80,42 L-88,46 L-91,49 L-102,53 L-117,61 L-129,65 L-132,66 L-132,68 L-136,69 L-138,72 L-148,77 L-150,79 L-157,82 L-161,89 L-164,85 L-162,81 L-151,72 L-144,69 L-128,61 L-114,54 L-109,52 L-93,44 L-74,34 L-64,30 L-60,27 L-49,23 L-41,18 L-33,14 L-26,9 L-15,4 L-3,1 Z M-161,82 Z M-162,83 Z M-49,22 Z M-142,67 Z M-165,85 Z " fill="#10161B" transform="translate(231,12)"/>
<path d="M0,0 L5,0 L-1,7 L-1,18 L3,23 L6,25 L426,26 L424,31 L416,42 L409,53 L407,53 L405,58 L395,72 L383,89 L371,106 L360,122 L349,138 L339,152 L334,161 L333,157 L335,153 L337,153 L338,149 L339,146 L341,146 L342,139 L350,128 L353,124 L355,124 L355,121 L357,120 L361,112 L365,107 L368,100 L371,99 L373,95 L375,92 L377,92 L379,87 L383,82 L387,76 L391,74 L392,70 L394,70 L396,64 L398,64 L400,60 L403,59 L405,53 L408,52 L409,47 L411,46 L412,42 L414,42 L414,38 L417,37 L420,28 L8,28 L-2,23 L-4,19 L-4,7 L-3,4 L-1,3 Z " fill="#0C4B54" transform="translate(33,418)"/>
<path d="M0,0 L6,0 L7,5 L7,188 L6,192 L0,192 Z " fill="#000000" transform="translate(887,119)"/>
<path d="M0,0 L3,1 L4,5 L4,197 L3,202 L0,202 L0,197 L-2,197 L-3,154 L-3,10 L-2,5 L-1,5 Z " fill="#000000" transform="translate(29,114)"/>
<path d="M0,0 L6,1 L29,1 L50,0 L88,0 L121,1 L142,1 L179,0 L192,1 L237,1 L246,0 L268,1 L282,1 L291,0 L305,1 L416,1 L429,0 L430,1 L437,0 L474,1 L486,1 L494,0 L501,1 L502,3 L-153,4 L-153,3 L-135,2 L-2,1 L0,2 Z " fill="#1A4352" transform="translate(197,413)"/>
<path d="M0,0 L9,0 L14,2 L23,4 L33,9 L34,11 L48,18 L49,20 L58,23 L59,25 L65,27 L73,31 L73,33 L79,34 L84,37 L92,40 L99,44 L102,47 L111,51 L112,54 L110,54 L110,52 L103,51 L92,44 L83,42 L59,30 L52,28 L36,20 L20,12 L5,4 L-2,4 L-17,8 L-23,11 L-25,14 L-34,16 L-34,18 L-41,21 L-52,28 L-60,31 L-61,33 L-72,37 L-75,39 L-81,41 L-85,42 L-86,45 L-92,49 L-102,53 L-113,59 L-120,61 L-126,62 L-123,59 L-106,51 L-91,43 L-75,35 L-59,27 L-45,20 L-39,17 L-27,10 L-23,8 L-13,3 Z M-26,9 Z M-89,41 Z M-129,62 L-126,62 L-127,65 L-131,67 L-134,67 L-134,69 L-148,76 L-159,82 L-162,83 L-171,85 L-176,86 L-174,82 L-168,81 L-163,77 L-158,76 L-153,74 L-148,72 L-137,66 L-131,63 Z M-153,73 Z " fill="#131D26" transform="translate(685,13)"/>
<path d="M0,0 L5,2 L7,6 L7,13 L8,23 L6,29 L8,30 L7,35 L8,40 L7,42 L8,47 L7,67 L8,78 L7,89 L8,101 L8,112 L7,116 L8,120 L8,128 L7,133 L8,138 L7,147 L6,149 L8,150 L8,188 L5,194 L-10,201 L-16,203 L-17,206 L-31,213 L-36,216 L-43,219 L-52,224 L-60,228 L-68,230 L-68,232 L-73,234 L-80,234 L-76,231 L-4,195 L2,192 L4,192 L4,4 L-17,14 L-36,24 L-44,28 L-46,28 L-46,24 L-33,18 L-30,18 L-30,16 L-27,16 L-27,14 L-21,13 L-20,10 L-13,8 L-9,5 L-3,2 Z M-61,228 Z " fill="#164D60" transform="translate(403,118)"/>
<path d="M0,0 L6,3 L7,6 L5,7 L3,11 L-3,14 L-9,17 L-14,20 L-22,24 L-35,29 L-43,34 L-47,34 L-48,37 L-54,39 L-57,39 L-57,41 L-72,49 L-86,56 L-92,57 L-92,59 L-97,62 L-107,66 L-116,69 L-117,72 L-132,79 L-136,80 L-137,82 L-142,85 L-146,89 L-156,89 L-164,85 L-170,81 L-183,76 L-187,72 L-200,66 L-204,64 L-204,62 L-216,59 L-228,52 L-238,48 L-238,46 L-242,45 L-254,39 L-260,36 L-260,34 L-265,33 L-276,28 L-290,21 L-301,15 L-314,8 L-315,3 L-314,6 L-309,7 L-297,14 L-290,17 L-274,25 L-260,32 L-244,40 L-233,46 L-210,58 L-200,63 L-191,67 L-168,79 L-156,85 L-149,84 L-126,72 L-94,56 L-78,48 L-51,34 L-25,21 L-10,13 L2,7 L2,3 L0,2 Z M-50,37 Z " fill="#1E4A6C" transform="translate(842,94)"/>
<path d="M0,0 L4,1 L-20,13 L-39,23 L-62,35 L-81,44 L-100,54 L-128,68 L-144,76 L-151,80 L-153,80 L-153,267 L-151,268 L-155,267 L-155,79 L-151,75 L-146,72 L-139,69 L-133,66 L-131,66 L-130,64 L-124,62 L-108,54 L-100,50 L-88,43 L-74,36 L-64,31 L-62,31 L-61,29 L-45,22 L-30,14 L-19,8 L-13,5 L-11,5 L-11,3 L-6,1 Z " fill="#144D5D" transform="translate(855,123)"/>
<path d="M0,0 L6,1 L25,11 L44,21 L60,29 L68,33 L84,41 L100,49 L111,55 L109,56 L100,52 L90,47 L90,45 L85,44 L77,41 L77,39 L67,37 L64,34 L59,32 L59,30 L54,29 L54,27 L45,26 L38,23 L38,21 L36,21 L36,18 L29,16 L26,14 L17,11 L17,9 L12,8 L6,5 L3,7 L3,33 L5,34 L4,35 L3,44 L3,185 L13,190 L13,192 L16,193 L12,194 L4,189 L-1,187 L-1,1 Z " fill="#0C89E6" transform="translate(58,123)"/>
<path d="M0,0 L4,1 L20,9 L39,19 L56,27 L75,37 L107,53 L123,61 L130,65 L127,66 L115,62 L111,59 L106,57 L103,55 L97,53 L96,49 L87,46 L68,37 L57,32 L47,27 L40,23 L38,23 L38,21 L33,20 L29,18 L29,16 L25,16 L23,13 L12,8 L9,7 L9,5 L2,4 L3,160 L3,186 L8,189 L14,190 L14,192 L21,194 L26,197 L26,200 L33,200 L33,202 L38,203 L52,210 L57,216 L52,214 L29,203 L12,194 L0,188 Z " fill="#1686D8" transform="translate(514,122)"/>
<path d="M0,0 L6,0 L2,3 L-17,13 L-33,21 L-55,32 L-72,41 L-88,49 L-105,58 L-106,245 L-108,245 L-109,234 L-109,130 L-110,114 L-109,111 L-109,85 L-110,78 L-109,68 L-109,60 L-108,56 L-106,56 L-106,54 L-104,54 L-104,52 L-96,48 L-93,48 L-93,46 L-85,43 L-66,33 L-49,25 L-45,24 L-44,21 L-38,19 L-34,17 L-18,9 L-14,6 L-7,3 Z M-35,16 Z " fill="#1A4A5A" transform="translate(351,146)"/>
<path d="M0,0 L391,0 L387,2 L384,1 L384,3 L91,3 L86,2 L77,3 L72,2 L47,2 L40,3 L8,3 L0,1 Z " fill="#0B0C0F" transform="translate(45,449)"/>
<path d="M0,0 L0,3 Z M-2,3 Z M-3,4 L-3,7 L-8,16 L-10,16 L-10,19 L-15,24 L-22,34 L-24,41 L-26,41 L-27,45 L-28,48 L-30,49 L-32,56 L-20,57 L148,57 L158,55 L155,59 L146,61 L135,62 L93,62 L86,63 L23,63 L18,62 L-14,62 L-24,61 L-34,57 L-35,49 L-31,44 L-27,35 L-23,30 L-19,23 L-11,15 L-9,10 Z M-12,14 Z M-13,15 Z " fill="#141A20" transform="translate(398,523)"/>
<path d="M0,0 L2,1 L3,4 L3,172 L6,165 L8,164 L9,168 L7,177 L6,181 L6,184 L3,191 L-1,194 L-7,198 L-15,202 L-24,206 L-32,210 L-40,214 L-49,220 L-51,222 L-54,221 L-50,219 L-48,215 L-49,215 L-55,215 L-51,212 L-24,198 L-10,191 L-2,187 L0,187 Z M-25,206 Z M-33,210 Z " fill="#112D36" transform="translate(863,123)"/>
<path d="M0,0 L3,1 L1,3 L-4,4 L-835,4 L-835,3 L-768,2 L-10,2 Z " fill="#2DD8E6" transform="translate(880,439)"/>
<path d="M0,0 L377,0 L373,2 L351,4 L296,4 L288,3 L285,3 L236,4 L93,4 L82,3 L0,3 L-8,4 L-8,2 L-18,2 L-18,1 Z " fill="#101216" transform="translate(502,448)"/>
<path d="M0,0 L823,0 L829,4 L829,6 L826,5 L826,3 L822,2 L0,1 Z " fill="#31D3E7" transform="translate(58,418)"/>
<path d="M0,0 L4,1 L12,5 L21,10 L21,197 L16,196 L0,188 L-19,178 L-40,168 L-40,167 L-33,167 L-29,169 L-29,171 L-23,172 L-19,174 L-19,176 L-13,177 L-4,181 L-4,183 L3,184 L4,186 L9,188 L15,190 L17,192 L18,186 L17,169 L18,158 L18,130 L17,128 L18,121 L18,98 L17,90 L18,73 L17,64 L17,45 L18,44 L18,22 L17,20 L17,11 L15,11 L15,9 L9,7 L9,5 L0,2 Z M18,63 Z " fill="#1487E0" transform="translate(654,193)"/>
<path d="M0,0 L177,0 L184,1 L183,3 L174,4 L8,4 L-7,3 L-8,1 Z " fill="#000000" transform="translate(370,592)"/>
<path d="M0,0 L7,0 L9,2 L-4,5 L-20,13 L-40,23 L-54,31 L-77,42 L-99,53 L-118,63 L-144,76 L-149,79 L-153,81 L-156,81 L-157,83 L-158,81 L-156,77 L-146,72 L-134,66 L-132,66 L-132,64 L-125,61 L-124,59 L-117,56 L-109,54 L-99,48 L-89,44 L-84,41 L-81,38 L-78,36 L-72,34 L-63,30 L-59,30 L-58,27 L-48,23 L-36,15 L-32,15 L-32,13 L-23,10 L-18,5 L-13,3 Z " fill="#13293B" transform="translate(683,16)"/>
<path d="M0,0 L1,2 L-5,13 L-6,19 L-8,19 L-9,22 L-12,22 L-14,27 L-19,35 L-23,37 L-28,47 L-28,51 L-26,52 L137,52 L142,51 L139,41 L137,37 L135,37 L135,34 L132,34 L131,25 L135,30 L143,41 L150,51 L149,54 L145,55 L-36,55 L-35,51 L-28,40 L-22,32 L-11,16 L-4,6 Z " fill="#24B9CC" transform="translate(403,524)"/>
<path d="M0,0 L7,0 L13,4 L11,5 L5,2 L1,2 L1,188 L9,191 L13,194 L20,197 L29,201 L29,203 L23,203 L18,201 L18,199 L14,198 L5,193 L-3,187 L-4,98 L-4,68 L-3,56 L-2,3 Z " fill="#1B364B" transform="translate(57,122)"/>
<path d="M0,0 L8,1 L9,1 L9,0 L16,0 L24,5 L36,11 L36,13 L43,14 L43,16 L49,18 L53,20 L54,22 L61,24 L66,28 L73,31 L81,34 L89,38 L89,40 L94,41 L98,46 L102,50 L101,52 L97,50 L97,47 L91,47 L75,39 L43,23 L41,21 L36,19 L20,11 L5,3 L0,1 Z " fill="#10151A" transform="translate(294,47)"/>
<path d="M0,0 L2,0 L2,2 L-1,2 L-1,4 L-4,4 L-6,8 L-15,11 L-15,29 L-16,38 L-16,182 L-13,185 L-14,187 L-16,187 L-17,193 L-10,193 L-14,196 L-19,197 L-19,10 Z M-13,183 Z " fill="#22E4F3" transform="translate(721,193)"/>
<path d="M0,0 L9,1 L19,7 L30,12 L34,13 L34,15 L39,16 L39,18 L45,19 L47,20 L47,22 L49,22 L52,27 L52,213 L49,213 L49,27 L39,21 L24,13 L7,5 L0,1 Z " fill="#185280" transform="translate(168,177)"/>
<path d="M0,0 L6,2 L13,7 L13,193 L8,192 L-8,184 L-23,176 L-28,174 L-28,173 L-20,173 L-20,175 L-15,177 L-9,180 L-9,182 L0,183 L7,186 L7,188 L10,186 L10,18 L9,7 L5,4 L0,3 Z " fill="#1287E4" transform="translate(205,197)"/>
<path d="M0,0 L9,0 L14,2 L12,3 L1,3 L-9,6 L-17,8 L-23,11 L-25,14 L-34,16 L-34,18 L-41,21 L-52,28 L-60,31 L-61,33 L-72,37 L-75,39 L-81,41 L-85,42 L-86,45 L-92,49 L-102,53 L-113,59 L-120,61 L-126,62 L-123,59 L-106,51 L-91,43 L-75,35 L-59,27 L-45,20 L-39,17 L-27,10 L-23,8 L-13,3 Z M-26,9 Z M-89,41 Z M-129,62 L-126,62 L-127,65 L-131,67 L-134,67 L-134,69 L-148,76 L-159,82 L-162,83 L-171,85 L-176,86 L-174,82 L-168,81 L-163,77 L-158,76 L-153,74 L-148,72 L-137,66 L-131,63 Z M-153,73 Z " fill="#0E1217" transform="translate(685,13)"/>
<path d="M0,0 L1,0 L2,17 L4,8 L8,10 L6,21 L8,21 L8,47 L5,50 L5,45 L2,47 L2,89 L5,81 L8,80 L8,95 L7,97 L7,108 L4,112 L2,112 L1,127 L0,127 Z M5,11 Z " fill="#1E303D" transform="translate(865,173)"/>
<path d="M0,0 L2,0 L3,9 L3,18 L4,20 L3,24 L3,50 L4,53 L3,58 L3,91 L4,93 L3,101 L3,115 L4,117 L3,133 L3,141 L4,146 L3,155 L4,159 L4,163 L3,172 L3,182 L1,188 L0,188 Z " fill="#24415A" transform="translate(676,203)"/>
<path d="M0,0 L7,0 L12,2 L31,2 L117,3 L127,2 L155,4 L168,8 L171,10 L171,12 L160,9 L144,8 L142,7 L19,6 L11,5 L11,3 L0,2 Z " fill="#121A20" transform="translate(721,407)"/>
<path d="M0,0 L1,0 L2,9 L9,10 L20,14 L411,15 L411,16 L21,17 L10,15 L7,14 L7,12 L1,10 L0,9 Z M411,14 Z " fill="#191C22" transform="translate(27,433)"/>
<path d="M0,0 Z M-68,2 Z M-54,2 Z M-34,1 L-28,2 L-22,1 L-22,3 L-14,1 L-9,2 L-5,1 L0,1 L-3,3 L-11,5 L-26,5 L-110,8 L-134,11 L-147,14 L-152,16 L-150,11 L-143,8 L-133,5 L-121,4 L-103,3 L-49,3 L-41,2 Z M-153,16 Z M-154,17 Z " fill="#141D23" transform="translate(178,406)"/>
<path d="M0,0 L4,1 L1,4 L-2,5 L-17,6 L-296,6 L-296,5 L-139,4 L-20,3 L-5,2 Z " fill="#181C22" transform="translate(884,443)"/>
<path d="M0,0 L3,0 L3,188 L-5,192 L-7,192 L-6,189 L1,187 L0,52 L0,24 L1,4 L-6,6 L-10,5 Z " fill="#28B8CD" transform="translate(404,122)"/>
<path d="M0,0 L391,0 L387,2 L83,2 L82,3 L77,3 L72,2 L47,2 L40,3 L8,3 L0,1 Z " fill="#14151A" transform="translate(45,449)"/>
<path d="M0,0 L417,0 L417,1 L4,2 L5,8 L1,3 Z " fill="#095C67" transform="translate(461,444)"/>
<path d="M0,0 L6,1 L7,3 L2,3 L2,182 L4,186 L13,190 L13,192 L16,193 L12,194 L4,189 L-1,187 L-1,1 Z " fill="#1681D0" transform="translate(58,123)"/>
<path d="M0,0 L4,1 L-13,9 L-18,12 L-20,12 L-20,199 L-18,200 L-22,199 L-22,11 L-12,5 L-2,1 Z " fill="#116E77" transform="translate(722,191)"/>
<path d="M0,0 L2,0 L2,3 L0,3 L0,5 L-5,8 L-8,11 L-18,15 L-30,20 L-38,25 L-47,28 L-56,32 L-61,34 L-62,37 L-66,39 L-69,42 L-80,47 L-85,49 L-95,49 L-91,46 L-63,32 L-44,22 L-10,5 Z " fill="#114250" transform="translate(806,338)"/>
<path d="M0,0 L2,0 L2,2 L-5,5 L-6,187 L1,185 L5,186 L-6,192 L-8,192 L-8,5 Z " fill="#33C0CE" transform="translate(253,199)"/>
<path d="M0,0 L12,0 L8,2 L-14,4 L-69,4 L-77,3 L-80,3 L-129,4 L-272,4 L-277,3 L-277,2 L-97,1 Z " fill="#0C0D10" transform="translate(867,448)"/>
<path d="M0,0 L6,2 L34,16 L50,24 L67,33 L83,41 L99,49 L106,50 L123,41 L139,33 L143,32 L143,34 L139,36 L136,39 L120,47 L111,52 L106,54 L96,53 L96,51 L91,49 L80,43 L69,36 L63,34 L63,32 L52,29 L36,21 L31,19 L31,17 L27,16 L13,9 L0,2 Z " fill="#1E4A6C" transform="translate(128,129)"/>
<path d="M0,0 L3,0 L3,188 L-7,192 L-7,190 L0,187 L1,2 L-1,1 Z " fill="#2FB9CD" transform="translate(860,122)"/>
<path d="M0,0 L2,1 L3,4 L2,186 L1,188 L-2,187 L0,187 Z " fill="#0A4656" transform="translate(863,123)"/>
<path d="M0,0 L13,0 L24,3 L24,5 L33,8 L41,12 L44,17 L61,25 L67,26 L67,28 L69,28 L69,31 L63,29 L43,19 L38,16 L24,9 L11,2 L3,2 L-20,14 L-40,24 L-42,26 L-46,25 L-40,21 L-38,21 L-38,19 L-29,14 L-26,13 L-25,10 L-16,5 L-10,3 Z " fill="#163248" transform="translate(225,16)"/>
<path d="M0,0 L1,0 L1,187 L-4,186 L-20,178 L-39,168 L-60,158 L-60,157 L-53,157 L-49,159 L-49,161 L-43,162 L-39,164 L-39,166 L-33,167 L-24,171 L-24,173 L-17,174 L-16,176 L-11,178 L-5,180 L-4,184 L-1,183 Z " fill="#1F7BC0" transform="translate(674,203)"/>
<path d="M0,0 L6,0 L12,4 L22,8 L30,12 L31,14 L42,17 L42,19 L47,20 L49,21 L49,23 L53,23 L53,25 L59,27 L63,30 L63,220 L60,219 L62,219 L62,32 L56,30 L48,25 L27,15 L12,7 L0,1 Z " fill="#145A8C" transform="translate(613,171)"/>
<path d="M0,0 L6,0 L3,3 L-14,11 L-33,21 L-50,30 L-58,34 L-72,41 L-88,49 L-95,53 L-99,53 L-100,58 L-102,58 L-101,54 L-96,49 L-91,47 L-83,42 L-80,41 L-78,38 L-74,38 L-74,36 L-68,33 L-58,29 L-42,21 L-32,17 L-29,14 L-22,12 L-22,10 L-14,7 L-4,2 Z " fill="#123650" transform="translate(173,42)"/>
<path d="M0,0 L2,1 L0,5 L-7,21 L-11,26 L-13,26 L-14,30 L-15,32 L-17,32 L-18,37 L-22,38 L-24,42 L-28,48 L-32,54 L-37,59 L-44,67 L-47,69 L-46,65 L-46,62 L-37,49 L-35,45 L-15,25 L-10,18 L-10,12 L-5,6 L-3,2 Z M-45,64 Z M-11,18 Z M-38,48 Z M-48,69 Z " fill="#1B2129" transform="translate(442,456)"/>
<path d="M0,0 L3,1 L1,1 L2,187 L14,190 L14,192 L21,194 L26,197 L26,200 L33,200 L33,202 L38,203 L52,210 L57,216 L52,214 L29,203 L12,194 L0,188 Z " fill="#1979C2" transform="translate(514,122)"/>
<path d="M0,0 L4,0 L4,3 L6,3 L5,8 L-1,12 L-15,19 L-27,26 L-35,28 L-45,33 L-47,33 L-47,35 L-56,40 L-63,41 L-63,43 L-82,53 L-95,60 L-103,63 L-112,67 L-116,66 L-100,58 L-81,48 L-65,40 L-49,32 L-9,12 L3,6 L5,6 L5,4 L3,4 Z " fill="#1B4669" transform="translate(387,94)"/>
<path d="M0,0 L2,1 L-4,6 L-11,9 L-21,14 L-35,21 L-39,24 L-44,25 L-49,28 L-60,34 L-76,43 L-83,46 L-90,48 L-94,49 L-91,45 L-76,39 L-70,36 L-68,36 L-67,33 L-63,31 L-60,28 L-56,25 L-46,21 L-38,18 L-25,11 L-15,7 L-7,5 L-6,2 Z M-42,24 Z M-50,28 Z M-82,45 Z M-91,48 Z M-92,49 Z " fill="#141B22" transform="translate(807,343)"/>
<path d="M0,0 L1,0 L2,187 L6,186 L12,184 L12,186 L6,190 L2,191 L-1,188 L-1,181 L-2,175 L-2,162 L-1,154 L-2,151 L-1,123 L-1,84 L-2,82 L-1,73 L-1,18 L0,14 L-2,13 L-1,12 L-1,5 Z " fill="#244956" transform="translate(699,203)"/>
<path d="M0,0 L2,1 L1,189 L0,189 L-1,178 L-1,74 L-2,58 L-1,55 L-1,29 L-2,22 L-1,12 L-1,4 Z " fill="#204554" transform="translate(243,202)"/>
<path d="M0,0 L2,0 L5,6 L5,28 L6,30 L5,40 L5,63 L4,68 L6,69 L5,77 L6,84 L5,103 L5,128 L6,132 L5,137 L5,164 L6,167 L5,173 L5,186 L3,190 L2,4 Z " fill="#27425B" transform="translate(217,200)"/>
<path d="M0,0 L3,1 L-3,3 L-3,56 L-2,63 L-3,101 L-3,133 L-2,139 L-2,151 L-4,167 L-5,167 L-5,3 Z " fill="#22E1F2" transform="translate(252,201)"/>
<path d="M0,0 L2,1 L-1,4 L-10,6 L-21,7 L-63,7 L-70,8 L-133,8 L-138,7 L-156,7 L-156,6 L-144,5 L-20,4 L-2,1 Z " fill="#0C0E11" transform="translate(554,578)"/>
<path d="M0,0 L7,2 L22,10 L30,14 L32,18 L26,16 L11,8 L3,4 L-1,3 L-2,189 L-3,189 L-4,74 L-4,5 Z " fill="#254764" transform="translate(514,119)"/>
<path d="M0,0 L4,1 L-24,15 L-25,16 L-26,203 L-27,203 L-27,15 L-26,12 L-24,12 L-24,10 L-16,6 L-13,6 L-13,4 Z " fill="#0C5D6A" transform="translate(271,188)"/>
<path d="M0,0 L0,3 L-15,10 L-21,12 L-22,15 L-36,22 L-41,25 L-48,28 L-57,33 L-65,37 L-73,39 L-73,41 L-78,43 L-85,43 L-81,40 L-9,4 Z M-66,37 Z " fill="#0F5669" transform="translate(408,309)"/>
<path d="M0,0 L5,2 L16,4 L16,6 L147,7 L149,8 L165,9 L165,10 L148,10 L107,9 L19,9 L8,7 L3,7 L2,4 L-1,3 Z " fill="#18262F" transform="translate(716,406)"/>
<path d="M0,0 L6,2 L13,7 L13,193 L8,192 L2,189 L6,188 L11,189 L11,22 L9,7 L5,4 L0,3 Z " fill="#1782D4" transform="translate(205,197)"/>
<path d="M0,0 L2,0 L2,2 L-1,2 L-1,4 L-4,4 L-6,8 L-15,11 L-16,13 L-18,13 L-18,194 L-10,193 L-14,196 L-19,197 L-19,10 Z " fill="#32D2DE" transform="translate(721,193)"/>
<path d="M0,0 L1,2 L-4,12 L-6,12 L-6,17 L-19,36 L-26,46 L-36,60 L-41,69 L-42,65 L-40,61 L-38,61 L-37,57 L-36,54 L-34,54 L-33,47 L-25,36 L-22,32 L-20,32 L-20,29 L-18,28 L-14,20 L-10,15 L-7,8 L-4,7 L-2,3 Z " fill="#113641" transform="translate(408,510)"/>
<path d="M0,0 L4,1 L13,5 L19,8 L38,18 L61,29 L73,36 L73,38 L75,38 L75,40 L59,48 L55,49 L55,47 L64,42 L68,41 L67,37 L62,35 L58,31 L39,22 L25,17 L22,15 L22,13 L20,13 L20,11 L16,10 L10,6 L1,3 Z " fill="#1578C0" transform="translate(317,60)"/>
<path d="M0,0 L6,0 L12,4 L20,7 L32,13 L37,15 L37,17 L42,18 L50,22 L50,24 L59,25 L60,28 L65,30 L69,30 L70,33 L76,35 L76,37 L80,39 L83,40 L83,42 L76,40 L64,33 L48,25 L35,19 L20,11 L4,3 Z " fill="#1A496C" transform="translate(85,135)"/>
<path d="M0,0 L7,0 L12,2 L31,2 L117,3 L127,2 L155,4 L165,7 L161,8 L145,6 L97,5 L11,4 L0,2 Z " fill="#0B0F13" transform="translate(721,407)"/>
<path d="M0,0 L4,0 L6,5 L-98,5 L-98,4 L-61,3 L-44,2 L-30,2 L-5,1 Z " fill="#203440" transform="translate(177,410)"/>
<path d="M0,0 L9,1 L13,3 L13,5 L17,6 L20,9 L28,13 L38,17 L39,19 L50,23 L50,25 L57,27 L59,31 L54,31 L45,28 L45,25 L43,25 L43,23 L37,23 L20,15 L16,9 L9,6 L0,2 Z " fill="#141A21" transform="translate(249,19)"/>
<path d="M0,0 L1,2 L-2,6 L-11,10 L-14,12 L-18,12 L-18,14 L-34,20 L-38,21 L-38,23 L-53,31 L-63,35 L-69,39 L-75,39 L-71,36 L-54,27 L-38,19 L-4,2 Z " fill="#2CD0E2" transform="translate(385,132)"/>
<path d="M0,0 L3,0 L1,5 L-6,15 L-13,26 L-15,26 L-17,31 L-27,45 L-39,62 L-51,79 L-53,80 L-53,77 L-51,77 L-49,71 L-43,60 L-39,55 L-35,49 L-31,47 L-30,43 L-28,43 L-26,37 L-24,37 L-22,33 L-19,32 L-17,26 L-14,25 L-13,20 L-11,19 L-10,15 L-8,15 L-8,11 L-5,10 L-3,5 L-1,4 Z " fill="#0E4958" transform="translate(455,445)"/>
<path d="M0,0 L2,0 L9,10 L21,27 L35,47 L39,54 L37,55 L37,53 L33,53 L31,47 L26,42 L23,36 L23,32 L19,31 L13,21 L13,18 L9,16 L9,14 L4,12 L2,6 L0,9 L-2,12 L-5,12 L-5,14 L-8,14 L-6,9 Z " fill="#28B8CA" transform="translate(459,444)"/>
<path d="M0,0 L2,0 L1,4 L-4,7 L-14,12 L-28,19 L-38,24 L-48,29 L-53,30 L-57,32 L-61,31 L-45,23 L-22,11 L-6,3 Z M-2,5 Z M-52,30 Z M-53,31 Z " fill="#125466" transform="translate(321,352)"/>
<path d="M0,0 L8,1 L17,4 L20,5 L20,7 L24,8 L34,12 L34,14 L39,16 L40,18 L51,21 L52,24 L57,25 L59,30 L53,28 L42,22 L36,19 L20,11 L5,3 L0,1 Z " fill="#13334B" transform="translate(294,47)"/>
<path d="M0,0 L2,0 L3,11 L4,13 L5,30 L1,36 L-1,48 L-1,54 L-3,54 L-3,23 L-2,11 L-2,8 L-1,3 Z M1,11 Z " fill="#1A1F25" transform="translate(49,191)"/>
<path d="M0,0 L5,5 L4,8 L0,9 L-181,9 L-180,5 L-178,7 L-2,7 L0,6 Z " fill="#1B808E" transform="translate(548,570)"/>
<path d="M0,0 L2,0 L2,2 L-4,5 L-6,5 L-6,7 L-10,10 L-15,12 L-20,15 L-26,18 L-31,21 L-33,21 L-34,23 L-40,25 L-46,28 L-52,30 L-54,32 L-65,34 L-64,32 L-43,22 L-35,18 L-16,8 Z " fill="#147DC8" transform="translate(152,56)"/>
<path d="M0,0 Z M-1,1 L-1,4 L-6,5 L-16,6 L-39,7 L-52,7 L-69,8 L-106,9 L-123,10 L-135,10 L-135,9 L-117,7 L-33,4 L-18,4 L-7,2 Z " fill="#1B2932" transform="translate(185,406)"/>
<path d="M0,0 L7,0 L13,4 L11,5 L5,2 L1,2 L0,187 L-1,187 L-1,1 Z " fill="#114A72" transform="translate(57,122)"/>
<path d="M0,0 L2,1 L-3,6 L-9,10 L-15,12 L-23,17 L-39,23 L-47,28 L-56,31 L-61,34 L-65,33 L-48,24 L-40,20 L-35,18 L-16,8 Z " fill="#1378BF" transform="translate(219,22)"/>
<path d="M0,0 L4,1 L19,9 L35,17 L65,32 L81,40 L94,47 L101,50 L116,58 L113,59 L98,51 L93,49 L74,39 L58,31 L37,21 L26,15 L18,11 L13,10 L13,8 L9,7 L9,5 L5,4 L0,2 Z " fill="#1877BA" transform="translate(707,26)"/>
<path d="M0,0 L4,1 L1,2 L1,185 L2,188 L-1,187 L-1,1 Z " fill="#1E71AB" transform="translate(58,123)"/>
<path d="M0,0 L4,2 L2,13 L4,13 L4,39 L1,42 L1,37 L-1,37 L-3,29 L-3,19 L-3,15 L-2,9 Z M1,3 Z M-3,31 Z " fill="#1C1E26" transform="translate(869,181)"/>
<path d="M0,0 Z M14,0 Z M-41,1 L14,1 L17,3 L-49,3 L-49,2 Z M-59,2 L-50,2 L-49,4 L-63,6 L-74,9 L-82,14 L-84,13 L-82,9 L-75,6 L-65,3 Z M-85,14 Z M-86,15 Z " fill="#0D1216" transform="translate(110,408)"/>
<path d="M0,0 L6,2 L9,4 L17,6 L20,7 L21,9 L38,16 L40,20 L34,18 L23,17 L4,7 L0,3 Z " fill="#11212E" transform="translate(802,69)"/>
<path d="M0,0 L6,0 L2,3 L-32,20 L-49,29 L-57,33 L-60,32 L-55,29 L-54,27 L-43,22 L-39,20 L-38,18 L-32,16 L-29,13 L-20,10 L-8,5 L-6,5 L-5,2 Z M-38,17 Z " fill="#1884D3" transform="translate(366,109)"/>
<path d="M0,0 L6,0 L12,4 L22,8 L30,12 L31,14 L42,17 L42,19 L47,20 L49,21 L49,23 L53,23 L53,25 L59,27 L63,30 L63,32 L59,31 L53,28 L37,20 L16,9 L0,1 Z " fill="#1B4B6D" transform="translate(613,171)"/>
<path d="M0,0 L6,2 L21,10 L37,18 L45,22 L61,30 L77,38 L88,44 L86,45 L77,41 L67,36 L67,34 L62,33 L54,30 L54,28 L44,26 L41,23 L36,21 L36,19 L31,18 L31,16 L22,15 L15,12 L15,10 L13,10 L13,7 L6,5 L0,2 Z " fill="#197FCC" transform="translate(81,134)"/>
<path d="M0,0 L2,1 L-1,3 L-4,3 L-4,5 L-7,5 L-7,8 L-45,27 L-55,30 L-69,37 L-70,35 L-63,31 L-56,28 L-50,25 L-48,25 L-47,23 L-41,21 L-25,13 L-17,9 L-5,2 Z " fill="#184A58" transform="translate(772,164)"/>
<path d="M0,0 L5,1 L31,14 L40,16 L45,20 L51,23 L56,24 L56,26 L62,27 L63,31 L66,32 L62,33 L43,23 L27,15 L1,2 Z " fill="#103652" transform="translate(739,41)"/>
<path d="M0,0 L7,1 L17,6 L21,7 L21,9 L27,10 L43,18 L55,25 L55,28 L49,26 L32,17 L23,13 L7,5 L0,1 Z " fill="#1680CB" transform="translate(619,145)"/>
<path d="M0,0 L7,0 L11,2 L11,4 L17,5 L21,7 L21,9 L27,10 L36,14 L36,16 L43,17 L44,19 L49,21 L55,23 L56,26 L50,26 L34,18 L18,10 L2,2 Z " fill="#177DD1" transform="translate(614,360)"/>
<path d="M0,0 L8,0 L18,4 L18,6 L22,7 L30,11 L40,16 L40,18 L44,19 L46,23 L39,21 L20,11 L4,3 Z " fill="#143651" transform="translate(693,18)"/>
<path d="M0,0 L9,1 L15,6 L23,7 L27,10 L34,13 L34,15 L38,16 L44,19 L51,23 L59,27 L59,30 L53,28 L43,23 L26,14 L14,8 L0,1 Z " fill="#1581CE" transform="translate(560,115)"/>
<path d="M0,0 L2,1 L-3,3 L-3,5 L-22,15 L-35,22 L-43,25 L-52,29 L-56,28 L-40,20 L-21,10 L-5,2 Z " fill="#1E4C72" transform="translate(327,132)"/>
<path d="M0,0 L1,4 L-1,4 L-2,9 L-6,14 L-8,14 L-9,19 L-14,28 L-19,33 L-23,39 L-28,44 L-31,45 L-29,41 L-21,29 L-13,18 L-10,13 L-8,13 L-6,8 Z " fill="#25C3D6" transform="translate(450,458)"/>
<path d="M0,0 L4,1 L-15,11 L-35,21 L-54,31 L-67,37 L-66,34 L-63,32 L-59,32 L-59,30 L-53,29 L-53,27 L-50,27 L-50,25 L-40,21 L-36,17 L-28,14 L-24,14 L-24,12 L-13,7 L-10,7 L-10,5 L-4,4 L-4,2 Z " fill="#2BCCDF" transform="translate(793,342)"/>
<path d="M0,0 L6,0 L10,3 L17,5 L28,11 L32,12 L32,14 L39,15 L42,16 L43,19 L48,22 L50,25 L43,23 L24,13 L0,1 Z " fill="#1780CE" transform="translate(168,148)"/>
<path d="M0,0 L3,1 L-27,16 L-32,19 L-36,21 L-39,21 L-40,23 L-41,21 L-39,17 L-29,12 L-15,5 Z " fill="#15354D" transform="translate(566,76)"/>
<path d="M0,0 L4,0 L4,133 L3,133 L2,2 L-2,4 L-6,3 Z " fill="#1ED7EC" transform="translate(857,124)"/>
<path d="M0,0 L5,0 L2,2 L-14,10 L-37,22 L-43,25 L-45,25 L-45,21 L-32,15 L-29,15 L-29,13 L-26,13 L-26,11 L-20,10 L-19,7 L-7,4 Z " fill="#154E5E" transform="translate(402,121)"/>
<path d="M0,0 L1,4 L1,15 L0,17 L0,28 L-3,32 L-6,31 L-6,21 L-5,16 L-6,10 L-2,1 Z " fill="#1C1E26" transform="translate(872,253)"/>
<path d="M0,0 L6,0 L2,3 L-17,13 L-33,21 L-42,25 L-40,21 L-36,21 L-36,19 L-34,19 L-34,17 L-18,9 L-14,6 L-7,3 Z " fill="#155364" transform="translate(351,146)"/>
<path d="M0,0 L3,1 L-18,12 L-37,21 L-44,25 L-46,25 L-46,23 L-43,23 L-43,21 L-38,19 L-36,16 L-24,10 L-18,8 L-17,6 L-9,2 L-4,2 Z " fill="#155667" transform="translate(811,146)"/>
<path d="M0,0 L5,0 L1,3 L-33,20 L-45,26 L-51,25 L-61,20 L-61,19 L-53,20 L-49,23 L-41,23 L-41,21 L-36,19 L-26,12 L-12,7 L-4,2 Z " fill="#1B85D1" transform="translate(735,154)"/>
<path d="M0,0 L8,1 L15,4 L24,8 L26,11 L36,14 L36,16 L41,18 L45,20 L45,23 L39,21 L20,11 L4,3 Z " fill="#177CCA" transform="translate(105,116)"/>
<path d="M0,0 L4,0 L5,10 L5,19 L3,28 L1,28 L1,24 L-1,24 L-2,19 L-2,5 L0,5 Z " fill="#000000" transform="translate(2,417)"/>
<path d="M0,0 L2,1 L-3,5 L-10,8 L-26,16 L-30,17 L-32,21 L-46,28 L-51,29 L-52,34 L-54,34 L-53,30 L-48,25 L-43,23 L-35,18 L-32,17 L-30,14 L-26,14 L-26,12 L-20,9 L-10,5 Z " fill="#163043" transform="translate(125,66)"/>
<path d="M0,0 L67,0 L69,4 L71,4 L73,11 L73,21 L68,27 L62,28 L67,24 L70,19 L70,10 L67,5 L62,2 L0,1 Z " fill="#06414E" transform="translate(818,416)"/>
<path d="M0,0 L0,3 Z M-2,3 Z M-3,4 L-3,7 L-8,16 L-10,16 L-10,19 L-15,24 L-22,34 L-24,41 L-26,41 L-27,45 L-28,48 L-30,49 L-32,56 L-33,56 L-33,49 L-29,43 L-25,36 L-22,27 L-13,17 L-10,12 Z M-12,14 Z M-13,15 Z " fill="#141E25" transform="translate(398,523)"/>
<path d="M0,0 L34,1 L30,3 L-34,3 L-34,1 Z " fill="#000000" transform="translate(838,397)"/>
<path d="M0,0 L12,6 L28,14 L44,22 L55,28 L53,29 L45,26 L31,19 L31,17 L21,15 L21,13 L16,12 L11,10 L9,7 L1,4 Z " fill="#1B4667" transform="translate(73,100)"/>
<path d="M0,0 L7,1 L16,6 L27,11 L36,14 L37,18 L42,19 L52,24 L52,25 L45,25 L41,21 L31,18 L31,16 L27,15 L19,11 L9,6 L4,3 L0,2 Z " fill="#152431" transform="translate(98,334)"/>
<path d="M0,0 L6,1 L16,5 L33,14 L38,16 L38,18 L42,19 L45,21 L45,23 L39,21 L9,6 L0,1 Z " fill="#1C4E73" transform="translate(568,148)"/>
<path d="M0,0 L2,1 L-17,11 L-41,23 L-46,25 L-46,23 L-38,17 L-22,9 L-15,5 L-4,2 Z " fill="#1782CF" transform="translate(816,114)"/>
<path d="M0,0 L5,0 L5,2 L12,4 L17,7 L17,10 L24,10 L24,12 L29,13 L43,20 L48,26 L43,24 L20,13 L9,7 L8,5 L0,1 Z " fill="#1580D4" transform="translate(523,312)"/>
<path d="M0,0 L2,1 L-17,11 L-33,19 L-50,28 L-53,27 L-42,19 L-35,15 L-24,11 L-12,6 L-6,3 L-4,3 L-4,1 Z " fill="#1A84D2" transform="translate(304,142)"/>
<path d="M0,0 L88,0 L87,2 L77,3 L72,2 L47,2 L40,3 L8,3 L0,1 Z " fill="#0C0D11" transform="translate(45,449)"/>
<path d="M0,0 L4,0 L5,5 L5,24 L3,24 L3,28 L1,28 L-1,19 L-1,10 Z " fill="#000000" transform="translate(914,417)"/>
<path d="M0,0 L5,0 L1,3 L-9,8 L-20,14 L-23,15 L-32,17 L-37,18 L-35,14 L-29,13 L-24,9 L-19,8 L-14,6 L-9,4 Z M-14,5 Z " fill="#141B21" transform="translate(546,81)"/>
<path d="M0,0 L2,1 L-4,6 L-11,9 L-21,14 L-35,21 L-39,24 L-44,25 L-49,28 L-50,25 L-41,21 L-25,13 L-21,12 L-21,10 L-13,6 L-7,5 L-6,2 Z M-42,24 Z M-50,28 Z " fill="#101419" transform="translate(807,343)"/>
<path d="M0,0 L4,0 L5,5 L5,24 L2,25 L0,24 L-1,19 L-1,5 Z " fill="#000000" transform="translate(345,556)"/>
<path d="M0,0 L2,1 L-2,6 L-8,8 L-14,12 L-24,16 L-35,20 L-37,19 L-15,7 Z " fill="#1378C2" transform="translate(668,26)"/>
<path d="M0,0 L85,0 L85,1 L14,2 L-8,4 L-8,2 L-18,2 L-18,1 Z " fill="#16181D" transform="translate(502,448)"/>
<path d="M0,0 L7,0 L30,12 L44,19 L48,22 L45,23 L29,15 L25,14 L25,12 L19,10 L4,3 L0,1 Z " fill="#1A4063" transform="translate(628,370)"/>
<path d="M0,0 L0,3 L-5,8 L-8,13 L-12,18 L-18,28 L-21,31 L-24,37 L-27,39 L-26,35 L-26,32 L-17,19 L-15,15 Z M-25,34 Z M-18,18 Z M-28,39 Z " fill="#13181E" transform="translate(422,486)"/>
<path d="M0,0 L9,0 L12,3 L23,6 L26,8 L26,10 L31,12 L34,14 L34,17 L28,15 L12,7 L0,1 Z " fill="#153249" transform="translate(353,77)"/>
<path d="M0,0 L4,0 L5,5 L5,14 L4,24 L-1,24 L-1,5 Z " fill="#000000" transform="translate(571,556)"/>
<path d="M0,0 L20,0 L20,1 L6,2 L2,4 L-1,4 L-3,9 L-4,19 L1,21 L7,24 L7,25 L0,25 L-6,20 L-7,18 L-7,7 L-3,2 Z " fill="#27BDD0" transform="translate(38,418)"/>
<path d="M0,0 L9,3 L19,9 L19,11 L22,12 L21,17 L0,28 L-5,29 L-4,27 L-1,27 L-1,25 L7,22 L13,17 L17,15 L14,10 L12,9 L12,7 L6,5 L0,1 Z " fill="#1581CB" transform="translate(823,85)"/>
<path d="M0,0 L7,0 L9,2 L-4,5 L-20,13 L-36,21 L-38,20 L-35,17 L-30,14 L-19,10 L-18,7 L-9,3 Z " fill="#113755" transform="translate(683,16)"/>
<path d="M0,0 L12,3 L17,6 L23,8 L31,12 L31,14 L36,15 L40,20 L44,24 L43,26 L39,24 L39,21 L35,21 L35,18 L30,16 L27,14 L27,12 L17,9 L12,7 L10,5 L1,4 Z " fill="#121B23" transform="translate(352,73)"/>
<path d="M0,0 L5,0 L2,1 L0,5 L-4,9 L-24,19 L-26,21 L-30,20 L-24,16 L-22,16 L-22,14 L-13,9 L-10,8 L-9,5 Z " fill="#12293A" transform="translate(209,21)"/>
<path d="M0,0 L2,1 L-5,5 L-10,8 L-18,12 L-26,14 L-26,16 L-31,18 L-38,18 L-34,15 L-12,4 L-4,2 Z M-19,12 Z " fill="#155063" transform="translate(361,334)"/>
<path d="M0,0 L4,1 L15,7 L23,8 L31,11 L31,13 L38,15 L40,19 L35,19 L26,16 L26,13 L24,13 L24,11 L18,11 L1,3 Z " fill="#16212C" transform="translate(268,31)"/>
<path d="M0,0 L1,3 L-1,6 L-3,6 L-4,11 L-8,12 L-10,16 L-14,22 L-18,28 L-23,33 L-27,37 L-28,35 L-24,31 L-18,20 L-12,13 L-6,8 Z M-29,37 Z " fill="#1E2932" transform="translate(428,482)"/>
<path d="M0,0 L4,1 L-24,15 L-25,16 L-26,28 L-27,28 L-27,15 L-26,12 L-24,12 L-24,10 L-16,6 L-13,6 L-13,4 Z " fill="#155568" transform="translate(271,188)"/>
<path d="M0,0 L4,5 L15,20 L24,33 L27,37 L26,39 L23,36 L23,34 L19,32 L16,28 L16,26 L14,26 L12,23 L12,18 L10,18 L9,14 L5,13 L5,11 L2,10 L2,4 L0,4 Z " fill="#2ABBCC" transform="translate(498,498)"/>
<path d="M0,0 L4,1 L-6,6 L-22,14 L-37,22 L-39,22 L-39,20 L-36,19 L-31,14 L-23,10 L-14,8 L-14,6 L-7,5 L-7,3 L-3,3 L-3,1 Z " fill="#26C3D6" transform="translate(849,314)"/>
<path d="M0,0 L94,0 L100,4 L100,6 L97,5 L97,3 L93,2 L0,1 Z " fill="#2CC6DA" transform="translate(787,418)"/>
<path d="M0,0 L1,0 L1,81 L-4,80 L-10,77 L-6,76 L-1,77 Z " fill="#1B7CCB" transform="translate(217,309)"/>
<path d="M0,0 L5,0 L1,4 L-9,8 L-15,11 L-23,15 L-32,21 L-34,23 L-37,22 L-33,20 L-31,16 L-27,13 L-19,10 L-12,7 L-2,1 Z M-8,7 Z M-16,11 Z " fill="#0E1418" transform="translate(846,322)"/>
<path d="M0,0 L5,1 L20,9 L36,17 L36,18 L31,18 L31,16 L26,15 L17,12 L11,9 L5,8 L5,5 L3,5 L2,1 Z " fill="#1581D3" transform="translate(169,179)"/>
<path d="M0,0 L2,0 L1,4 L-5,8 L-7,14 L-5,15 L-5,17 L-11,15 L-17,12 L-17,9 L-7,4 Z " fill="#147CC8" transform="translate(545,88)"/>
<path d="M0,0 L5,0 L1,3 L-31,19 L-34,20 L-34,17 L-26,13 L-24,13 L-24,11 L-13,6 L-10,3 L-4,3 Z " fill="#28D0E4" transform="translate(340,340)"/>
<path d="M0,0 L6,1 L11,4 L19,7 L26,11 L29,14 L38,18 L39,21 L37,21 L37,19 L30,18 L16,9 L6,5 L0,1 Z " fill="#0F1419" transform="translate(758,46)"/>
<path d="M0,0 L5,1 L20,8 L21,10 L38,18 L44,19 L44,21 L46,21 L46,24 L40,22 L20,12 L15,9 L1,2 Z " fill="#103E61" transform="translate(248,23)"/>
<path d="M0,0 L27,1 L29,3 L17,4 L0,4 L-11,3 L-9,1 Z " fill="#000000" transform="translate(680,3)"/>
<path d="M0,0 L27,1 L29,3 L17,4 L0,4 L-9,3 L-8,1 Z " fill="#000000" transform="translate(223,3)"/>
<path d="M0,0 L2,0 L4,4 L6,5 L6,11 L4,11 L4,14 L0,14 L-1,10 L-1,1 Z " fill="#000000" transform="translate(879,306)"/>
<path d="M0,0 L5,0 L5,9 L4,13 L2,13 L1,15 L-1,9 Z " fill="#000000" transform="translate(562,547)"/>
<path d="M0,0 L2,0 L2,12 L-2,12 L-2,4 L0,4 Z " fill="#000000" transform="translate(872,314)"/>
<path d="M0,0 L7,1 L8,3 L3,5 L-3,4 L-3,2 Z " fill="#000000" transform="translate(773,41)"/>
<path d="M0,0 L5,2 L5,4 L-4,5 L-6,3 L-4,1 Z " fill="#000000" transform="translate(758,31)"/>
<path d="M0,0 L8,1 L8,3 L4,4 L4,8 L2,8 L0,3 Z " fill="#000000" transform="translate(860,323)"/>
<path d="M0,0 L6,1 L6,4 L-1,5 L-4,3 Z " fill="#000000" transform="translate(765,36)"/>
<path d="M0,0 L5,2 L5,4 L-4,5 L-4,2 Z " fill="#000000" transform="translate(802,55)"/>
<path d="M0,0 L7,0 L9,3 L0,4 L-2,2 Z " fill="#000000" transform="translate(790,51)"/>
<path d="M0,0 L8,1 L8,3 L5,4 L-2,4 L-2,1 Z " fill="#000000" transform="translate(782,46)"/>
<path d="M0,0 L8,1 L8,3 L1,5 L-2,2 Z " fill="#000000" transform="translate(746,27)"/>
<path d="M0,0 L2,4 L2,10 L-1,10 Z " fill="#000000" transform="translate(338,571)"/>
<path d="M0,0 L2,4 L2,10 L0,9 Z " fill="#000000" transform="translate(581,571)"/>
<path d="M0,0 L2,2 L-2,3 L-2,1 Z " fill="#000000" transform="translate(531,517)"/>
<path d="M0,0 L7,0 L7,1 L0,1 Z " fill="#000000" transform="translate(231,0)"/>
<path d="M0,0 L2,2 L-1,1 Z " fill="#000000" transform="translate(504,479)"/>
<path d="M0,0 Z " fill="#000000" transform="translate(556,552)"/>
<path d="M0,0 Z " fill="#000000" transform="translate(240,0)"/>
</svg>
